<?xml version="1.0" standalone="no"?>
<!DOCTYPE svg PUBLIC "-//W3C//DTD SVG 20010904//EN"
 "http://www.w3.org/TR/2001/REC-SVG-20010904/DTD/svg10.dtd">
<svg version="1.0" xmlns="http://www.w3.org/2000/svg"
 width="16.000000pt" height="16.000000pt" viewBox="0 0 16.000000 16.000000"
 preserveAspectRatio="xMidYMid meet">
<metadata>
Created by potrace 1.11, written by Peter Selinger 2001-2013
</metadata>
<g transform="translate(0.000000,16.000000) scale(0.002286,-0.002286)"
fill="#000000" stroke="none">
<path d="M3397 6924 c-1 -1 -53 -5 -114 -8 -112 -7 -146 -10 -233 -21 -91 -13
-115 -16 -130 -20 -8 -3 -32 -7 -54 -11 -47 -7 -52 -8 -146 -29 -128 -29 -349
-99 -495 -157 -206 -82 -483 -229 -649 -345 -28 -20 -64 -46 -81 -57 -16 -12
-32 -23 -35 -26 -3 -3 -34 -28 -70 -55 -36 -27 -67 -52 -70 -55 -3 -3 -34 -30
-70 -60 -360 -307 -688 -752 -885 -1205 -79 -181 -174 -460 -191 -564 -3 -14
-9 -39 -14 -56 -5 -16 -14 -57 -19 -90 -6 -33 -13 -76 -17 -95 -8 -47 -12 -74
-20 -145 -3 -33 -8 -63 -10 -66 -5 -8 -17 -251 -17 -349 -1 -95 12 -371 18
-379 1 -3 6 -35 10 -71 4 -36 9 -74 11 -85 2 -11 6 -33 9 -50 49 -342 225
-829 409 -1135 31 -51 56 -94 56 -96 0 -8 95 -144 173 -249 260 -347 583 -640
954 -867 204 -125 467 -249 663 -313 30 -10 64 -21 75 -26 102 -41 415 -111
600 -133 28 -4 66 -8 85 -11 175 -22 586 -22 720 -1 14 3 48 7 75 11 125 15
225 32 295 50 23 6 52 12 95 21 69 13 242 69 437 140 244 89 655 327 871 505
541 444 903 966 1120 1609 36 108 102 363 112 435 3 22 9 54 12 70 6 32 7 38
18 130 4 33 9 69 11 79 6 33 18 276 17 366 0 86 -11 300 -18 355 -3 17 -7 54
-10 83 -4 29 -8 63 -11 75 -2 12 -9 51 -15 87 -16 97 -75 332 -109 438 -76
238 -196 500 -330 722 -58 97 -214 322 -243 352 -7 7 -19 22 -27 34 -28 40
-135 158 -235 258 -378 381 -827 660 -1344 835 -84 29 -276 81 -348 96 -136
27 -218 41 -301 50 -29 4 -61 8 -71 10 -50 9 -456 26 -464 19z m-1523 -3572
l554 -554 127 124 c71 67 154 148 185 178 31 30 159 154 285 275 126 121 283
273 349 337 l121 118 525 -529 525 -529 567 567 568 567 125 0 125 0 -32 -34
c-51 -52 -1293 -1294 -1321 -1321 l-25 -23 -329 325 c-472 468 -717 707 -724
707 -6 0 -192 -182 -717 -701 -277 -275 -336 -328 -348 -318 -36 29 -1360
1359 -1357 1362 2 2 57 3 123 3 l120 -1 554 -553z"/>
</g>
</svg>
